PathFileType	4	(X/Y/Z)	C:/Users/beibeiliu/ov580/test_trc\sequence.33_training_dense_left.trc
DataRate	CameraRate	NumFrames	NumMarkers	Units	OrigDataRate	OrigDataStartFrame	OrigNumFrames
120	120	18	19	mm	120	85	169
Frame#	Time	ThumbCMC			ThumbMCP			ThumbIP			ThumbTip			IndexMCP			IndexPIP			IndexTip			MiddleMCP			MiddlePIP			MiddleTip			RingMCP			RingPIP			RingTip			PinkyMCP			PinkyPIP			PinkyTip			BackHand1			BackHand2			BackHand3	
		X0	Y0	Z0	X1	Y1	Z1	X2	Y2	Z2	X3	Y3	Z3	X4	Y4	Z4	X5	Y5	Z5	X6	Y6	Z6	X7	Y7	Z7	X8	Y8	Z8	X9	Y9	Z9	X10	Y10	Z10	X11	Y11	Z11	X12	Y12	Z12	X13	Y13	Z13	X14	Y14	Z14	X15	Y15	Z15	X16	Y16	Z16	X17	Y17	Z17	X18	Y18	Z18	
84	0.7	-179.337	14.8421	65.161	-186.146	34.6336	44.1082	-187.135	45.9484	23.4995	-182.361	58.1531	8.47482	-150.476	20.0785	6.65748	-143.963	44.5805	-9.31219	-146.452	63.435	-17.3319	-129.053	13.1475	5.0279	-118.491	18.1092	-12.3546	-110.449	24.7107	-36.3068	-111.326	17.5066	20.8196	-103.528	24.3328	-1.95684	-96.7813	31.3152	-20.5163	-103.106	25.5175	35.3408	-93.7802	37.1218	21.7547	-95.4324	49.1022	3.75209	-122.268	2.29636	59.6456	-133.152	-2.31534	86.466	-153.469	-6.11664	62.6798	
85	0.708333	-180.515	16.2777	68.122	-183.977	34.394	45.6104	-183.475	45.7253	26.8428	-182.846	58.0355	8.17252	-148.318	23.3904	6.5287	-143.711	40.6396	-6.81161	-142.572	64.3604	-17.1779	-130.299	13.9872	7.58882	-121.547	21.4916	-16.0595	-112.804	27.8317	-34.8253	-110.177	19.6725	21.1551	-106.534	29.4029	-1.29234	-98.328	45.6791	-18.2758	-97.2924	25.3257	37.7405	-92.1136	33.278	24.0799	-83.0185	45.06	4.67978	-123.739	3.93078	62.4563	-133.876	-2.98148	82.3675	-155.287	-4.80123	65.485	
86	0.716667	-178.69	17.259	69.6169	-185.767	35.8115	46.1705	-188.298	46.8121	27.9881	-183.048	59.6736	5.87664	-147.849	23.5903	8.71714	-144.8	41.1404	-11.4554	-140.503	64.0562	-22.4328	-127.426	17.1447	10.2971	-122.262	23.9839	-11.9562	-109.566	31.8748	-37.5576	-114.137	23.9723	19.9821	-107.097	41.9391	-1.24249	-107.721	60.5272	-9.65677	-101.709	25.1598	38.6117	-92.7496	33.0994	20.8064	-80.9958	40.6731	8.49421	-124.989	6.03505	63.7188	-134.484	-3.22548	81.2829	-155.784	-4.4858	63.4109	
87	0.725	-180.048	17.5315	68.2807	-187.615	35.8226	44.8292	-183.502	45.6885	25.8886	-185.841	58.832	6.98713	-147.13	21.5178	5.3638	-142.191	35.0406	-12.4253	-139.183	54.1881	-28.9988	-128.201	17.3865	6.58241	-121.065	24.2217	-14.111	-110.241	33.5907	-33.3425	-111.535	29.2146	21.0451	-112.647	50.2813	3.4139	-121.484	75.8683	4.30415	-101.799	28.3598	39.5457	-89.2992	37.0589	23.3723	-81.356	44.9002	9.89427	-123.488	5.65608	62.2034	-133.167	-1.50387	86.3121	-153.463	-3.67401	63.3759	
88	0.733333	-178.337	16.2799	64.7006	-184.891	33.804	44.6824	-186.824	45.4526	20.6142	-180.376	58.8584	4.51321	-146.257	17.0843	7.83949	-142.559	27.7936	-18.5828	-136.996	39.7594	-33.5892	-120.272	19.8081	7.53425	-112.24	28.0571	-13.5544	-105.352	36.8281	-31.7922	-110.924	35.7589	24.2909	-115.569	58.2774	9.52879	-128.8	80.2795	16.6852	-100.392	32.6651	39.9349	-91.9847	42.1014	26.506	-80.6903	52.1442	14.5086	-124.191	6.82638	62.8838	-130.093	0.1369	84.8999	-151.035	-1.75719	59.1244	
89	0.741667	-176.125	15.4379	64.1849	-183.684	31.7527	43.2586	-182.984	43.4632	21.821	-183.344	55.7075	6.93343	-145.576	13.4164	6.69226	-141.897	20.2621	-19.0811	-141.063	29.9114	-41.0352	-119.542	19.3088	7.19649	-113.516	28.1268	-15.2727	-102.977	41.9088	-32.867	-113.152	37.9192	20.9404	-117.009	63.2663	10.8715	-135.915	79.6379	19.4272	-98.0492	35.8044	43.6484	-90.2767	46.8019	26.4751	-83.1851	58.3048	10.1235	-119.97	9.60441	62.9606	-127.542	1.40446	85.9269	-148.972	-3.34855	59.6273	
90	0.75	-179.765	12.6465	65.9109	-183.411	30.1201	43.4856	-187.033	42.0642	19.3527	-180.769	54.1673	3.77579	-144.634	11.1158	8.49977	-141.833	17.3722	-15.9556	-141.037	35.342	-38.6108	-123.532	17.4767	10.7323	-114.69	26.2477	-12.45	-106.915	46.0679	-34.4129	-114.701	34.224	22.0526	-118.589	60.9552	8.84554	-137.713	80.9891	22.01	-96.1128	37.3421	40.3036	-92.2505	44.5707	25.9655	-85.5203	56.3212	11.706	-124.976	8.65978	61.1513	-127.276	3.32961	83.8644	-150.61	-5.86204	61.0379	
91	0.758333	-181.25	13.2383	66.442	-188.572	30.1323	44.3673	-189.52	40.8575	23.813	-184.637	51.9832	7.3565	-148.566	16.7873	3.26432	-143.431	31.2378	-14.6108	-146.688	55.2394	-26.0506	-128.929	16.5169	10.2426	-119.317	29.4832	-17.3417	-112.788	49.2367	-33.6694	-113.448	31.8624	17.2923	-114.506	55.1132	7.16088	-130.23	75.9531	16.938	-102.812	32.2691	42.7588	-91.3018	42.2887	25.8096	-82.7226	52.8939	9.15514	-125.827	7.39468	60.3776	-130.594	0.149856	82.2977	-150.951	-2.50429	60.508	
92	0.766667	-182.74	18.6638	70.54	-186.255	34.7409	50.1054	-189.787	43.4372	24.7954	-184.636	53.8011	8.25436	-151.432	25.6599	10.0279	-147.974	48.354	-8.24815	-150.772	71.9973	-6.85092	-129.454	19.5752	10.5827	-123.037	32.225	-13.6456	-120.386	53.6648	-33.782	-114.059	23.9325	21.6819	-111.432	44.0332	1.78567	-121.847	66.2453	1.95267	-102.471	27.1734	42.8998	-93.1923	31.9314	25.3262	-84.9532	40.8932	5.54711	-126.414	9.34486	63.1061	-136.273	0.0550304	86.7112	-152.891	0.276465	66.5704	
93	0.775	-182.606	24.3719	72.9494	-188.277	40.4062	48.7716	-190.443	49.4832	31.4016	-193.629	60.1304	12.023	-158.92	31.6678	10.431	-153.916	56.6226	-2.08783	-154.881	85.3877	4.47903	-136.471	21.5976	5.74905	-130.056	31.236	-14.2038	-121.006	51.5573	-32.3242	-116.3	15.8707	22.0034	-110.073	23.8939	1.25416	-111.506	46.887	-15.1853	-107.937	20.1903	42.2789	-94.7842	19.602	25.5202	-82.445	24.5598	7.03491	-133.924	7.45413	60.9885	-140.907	2.0913	83.889	-159.15	1.66922	65.297	
94	0.783333	-180.649	25.5974	74.726	-193.272	43.8451	52.0851	-193.996	53.6931	28.8089	-192.202	63.2146	14.663	-161.115	38.8852	9.23074	-153.187	61.0055	0.679546	-153.493	85.9263	5.8553	-139.882	22.3679	5.30273	-134.022	31.6333	-16.7575	-121.927	46.482	-36.9713	-119.55	14.8641	23.151	-113.243	16.0452	2.20571	-102.647	25.2368	-21.4749	-107.588	19.4611	42.6299	-92.3612	17.0667	33.3739	-79.1029	13.8686	13.5702	-135.642	10.5356	62.1706	-139.777	1.28399	84.4258	-158.221	4.4976	65.6376	
95	0.791667	-180.544	26.1789	74.1861	-192.497	44.1106	54.9951	-190.657	53.1758	30.7322	-194.303	66.4706	16	-158.973	39.8099	8.33738	-152.38	63.0643	-0.300239	-149.737	89.7778	4.00156	-135.158	22.8595	7.05739	-133.122	29.1892	-11.7395	-121.351	41.0878	-35.7793	-116.68	16.8829	23.6819	-110.562	16.5535	6.16367	-102.534	17.1623	-14.7966	-103.91	22.3513	47.3002	-87.4332	20.785	29.0187	-78.605	18.2328	13.6397	-130.96	8.89243	60.0137	-139.992	4.02973	85.2313	-162.447	4.02014	63.6718	
96	0.8	-181.009	25.9112	72.7634	-189.087	42.8116	52.1627	-193.178	55.757	28.8347	-188.588	66.7593	14.0963	-159.137	36.8043	10.6137	-156.687	60.6523	-2.62343	-150.634	87.2305	-2.35715	-135.506	22.6579	11.3259	-128.839	28.887	-12.8652	-122.378	35.7153	-33.5161	-119.753	16.9942	22.5919	-110.857	16.2751	3.1142	-101.969	16.5789	-14.743	-101.915	23.7359	41.3305	-88.8358	27.0833	27.4517	-75.5068	28.0369	15.8081	-130.076	9.04386	61.3497	-135.946	0.541933	83.841	-162.498	5.15089	66.8587	
97	0.808333	-179.778	26.8003	73.9314	-188.839	46.0286	53.8765	-186.859	57.6931	34.7273	-182.272	72.3277	13.5494	-159.633	32.7129	11.4696	-154.287	58.3644	-5.35666	-150.577	83.531	-8.60583	-133.187	21.8616	11.7011	-129.146	28.0194	-14.3745	-122.927	34.6392	-35.7073	-118.957	18.2764	23.0024	-107.954	19.1745	4.37051	-100.933	20.2424	-15.55	-101.914	26.2055	40.9477	-90.4914	32.7448	23.9919	-78.2162	39.2768	10.2305	-133.149	7.72426	60.9217	-136.805	2.4233	88.7658	-158.373	5.02965	64.3703	
98	0.816667	-182.883	29.7154	73.8983	-188.254	53.8397	54.843	-180.692	66.6614	31.9339	-169.308	77.5946	19.0072	-156.295	31.4845	12.0747	-151.196	53.0008	-7.55883	-146.733	74.0844	-15.577	-134.577	20.0692	11.5859	-130.438	24.5912	-10.6705	-119.715	34.9609	-37.3029	-117.779	18.6645	23.3667	-108.359	21.467	4.66125	-103.939	27.2875	-15.9473	-103.623	27.2385	39.8422	-94.6259	37.5588	22.1263	-85.7381	52.2701	7.31154	-132.035	8.55437	61.5115	-137.109	2.21851	89.1612	-162.686	6.32813	68.8317	
99	0.825	-177.5	32.7149	70.6216	-179.703	58.1348	51.7152	-173.048	72.2172	35.0115	-157.376	83.4289	22.3441	-155.326	29.7369	9.36372	-150.775	42.8615	-9.06744	-144.707	65.622	-22.5973	-134.98	16.9164	13.3956	-129.211	22.324	-14.5549	-119.826	35.7307	-38.1279	-116.738	17.7762	21.974	-111.549	23.7948	0.613857	-107.153	37.6307	-17.9021	-107.147	25.9232	40.0792	-97.4308	38.8722	22.561	-97.4251	58.9862	12.6961	-131.112	6.38133	63.7361	-139.061	2.11203	86.0611	-160.58	3.93301	69.2635	
100	0.833333	-177.101	34.4154	75.8174	-176.206	62.1173	51.5313	-164.803	73.7515	36.072	-145.928	84.0494	23.062	-158.658	27.0934	11.1588	-152.532	38.2139	-9.62569	-144.847	59.2117	-27.6229	-134.726	14.7613	9.28528	-129.13	19.7382	-13.5993	-122.123	38.2495	-36.7528	-119.999	17.5343	24.039	-113.065	26.8993	0.606253	-107.721	50.1058	-14.0446	-102.604	26.3256	39.1601	-99.4609	40.7584	21.2362	-101.841	63.9619	15.8349	-131.366	6.84237	62.5842	-141.618	2.47767	89.2157	-162.772	7.26685	67.4906	
101	0.841667	-177.562	36.5072	70.3505	-171.232	61.0334	54.1629	-156.94	71.5895	37.1467	-137.027	79.5944	26.5016	-160.977	26.8599	10.86	-157.155	37.1438	-9.9658	-147.322	57.6878	-29.7368	-137.53	16.3789	13.8091	-127.138	23.8817	-15.3014	-118.694	43.0215	-30.9994	-120.938	18.6446	22.3905	-110.701	34.4805	-0.454551	-111.326	58.2599	-5.84755	-103.728	26.6023	39.3318	-100.681	41.2419	22.344	-104.151	67.9601	20.1951	-133.272	6.76979	63.1189	-138.576	3.76902	85.4048	-163.407	6.03565	64.0203	
